<?xml version="1.0" encoding="utf-8"?>
<!-- Generator: Adobe Illustrator 16.0.0, SVG Export Plug-In . SVG Version: 6.00 Build 0)  -->
<!DOCTYPE svg PUBLIC "-//W3C//DTD SVG 1.1//EN" "http://www.w3.org/Graphics/SVG/1.1/DTD/svg11.dtd">
<svg version="1.1" id="Layer_1" xmlns="http://www.w3.org/2000/svg" xmlns:xlink="http://www.w3.org/1999/xlink" x="0px" y="0px"
	 width="179.676px" height="179.677px" viewBox="0 0 179.676 179.677" enable-background="new 0 0 179.676 179.677"
	 xml:space="preserve">
<g>
	<polygon fill="#E78D2B" points="131.915,117.115 179.676,80.206 148.917,49.446 137.539,56.693 145.232,45.762 119.637,20.167 
		109.13,28.285 115.953,16.482 99.471,0 62.561,47.762 	"/>
	<path fill="#303745" d="M5.835,173.841c0,0,7.989,12.487,19.547,0.929c11.56-11.56,15.334-23.354,41.754-49.774l-6.228-6.229
		l-6.228-6.228c-26.42,26.421-38.215,30.195-49.774,41.754C-6.652,165.853,5.835,173.841,5.835,173.841z M16.561,163.116
		c1.498,1.498,1.498,3.927,0,5.426c-1.498,1.498-3.928,1.498-5.426,0s-1.498-3.928,0-5.426S15.062,161.618,16.561,163.116z"/>
	<g>
		<path fill="#303745" d="M50.648,59.91l-5.651,5.65c-3.486,3.486-5.473,8.195-5.538,13.125l-0.242,18.325
			c-0.067,5.102,1.93,10.015,5.538,13.623l24.287,24.287c3.608,3.608,8.521,5.605,13.623,5.538l18.325-0.242
			c4.929-0.064,9.639-2.052,13.125-5.537l5.65-5.651L50.648,59.91z"/>
		
			<rect x="84.993" y="38.636" transform="matrix(-0.7071 0.7071 -0.7071 -0.7071 219.2164 84.2212)" fill="#303745" width="14.345" height="97.749"/>
	</g>
</g>
</svg>
