<?xml version="1.0" encoding="utf-8"?>
<!-- Generator: Adobe Illustrator 16.0.0, SVG Export Plug-In . SVG Version: 6.00 Build 0)  -->
<!DOCTYPE svg PUBLIC "-//W3C//DTD SVG 1.1//EN" "http://www.w3.org/Graphics/SVG/1.1/DTD/svg11.dtd">
<svg version="1.1" id="Layer_1" xmlns="http://www.w3.org/2000/svg" xmlns:xlink="http://www.w3.org/1999/xlink" x="0px" y="0px"
	 width="179.676px" height="163.495px" viewBox="0 0 179.676 163.495" enable-background="new 0 0 179.676 163.495"
	 xml:space="preserve">
<g>
	<path fill="#E78D2B" d="M7.046,156.449L7.046,156.449c7.182,7.182,14.792,10.766,23.604,1.421l92.139-97.708l-19.456-19.455
		L5.625,132.845C-3.72,141.656-0.136,149.268,7.046,156.449z"/>
	<g>
		<path fill="#303745" d="M144.725,56.076c-6.688,6.688-16.058,9.047-24.645,7.092l-19.924-19.924
			c-1.955-8.587,0.405-17.957,7.092-24.645c6.688-6.687,16.058-9.047,24.645-7.092l19.924,19.924
			C153.771,40.019,151.411,49.389,144.725,56.076z"/>
		<path fill="#303745" d="M138.143,32.937l12.005,12.005c4.191,4.191,10.986,4.191,15.178,0l0,0l14.351,14.35l-31.736,31.736
			l-14.351-14.35l0,0c4.191-4.191,4.191-10.987,0-15.179l-12.004-12.005L138.143,32.937z"/>
		<path fill="#303745" d="M77.457,14.832l-2.869-2.869l0,0c15.95-15.95,41.81-15.95,57.76,0l0,0l-12.042,12.041
			C108.381,13.202,91.942,10.152,77.457,14.832z"/>
	</g>
</g>
</svg>
