<?xml version="1.0" encoding="utf-8"?>
<!-- Generator: Adobe Illustrator 16.0.0, SVG Export Plug-In . SVG Version: 6.00 Build 0)  -->
<!DOCTYPE svg PUBLIC "-//W3C//DTD SVG 1.1//EN" "http://www.w3.org/Graphics/SVG/1.1/DTD/svg11.dtd">
<svg version="1.1" id="white-logo" xmlns="http://www.w3.org/2000/svg" xmlns:xlink="http://www.w3.org/1999/xlink" x="0px" y="0px"
	 width="1011.361px" height="231.092px" viewBox="0 0 1011.361 231.092" enable-background="new 0 0 1011.361 231.092"
	 xml:space="preserve">
<g>
	<g>
		<path fill="#E78D2B" d="M89.838,6.527c-47.376,0-85.782,38.406-85.782,85.782h171.564C175.621,44.934,137.214,6.527,89.838,6.527z
			"/>
		<path fill="#E78D2B" d="M176.083,107.1H3.594C1.609,107.1,0,105.49,0,103.506V84.494C0,82.509,1.609,80.9,3.594,80.9h172.489
			c1.984,0,3.593,1.608,3.593,3.594v19.012C179.676,105.49,178.067,107.1,176.083,107.1z"/>
		<path fill="#E78D2B" d="M76.739,103.506V3.594C76.739,1.609,78.347,0,80.332,0h19.012c1.985,0,3.594,1.609,3.594,3.594v99.912
			c0,1.984-1.609,3.594-3.594,3.594H80.332C78.347,107.1,76.739,105.49,76.739,103.506z"/>
		<g>
			<path fill="#E78D2B" d="M34.185,22.204l59.271,57.995c1.418,1.389,1.443,3.664,0.055,5.082l-13.297,13.59
				c-1.388,1.418-3.663,1.443-5.082,0.055L15.862,40.931c-1.418-1.388-1.443-3.663-0.055-5.081l13.296-13.59
				C30.491,20.842,32.766,20.816,34.185,22.204z"/>
			<path fill="#E78D2B" d="M145.492,22.204L86.22,80.199c-1.419,1.389-1.443,3.664-0.056,5.082l13.297,13.59
				c1.388,1.418,3.663,1.443,5.082,0.055l59.271-57.995c1.418-1.388,1.443-3.663,0.055-5.081l-13.297-13.59
				C149.185,20.842,146.91,20.816,145.492,22.204z"/>
		</g>
	</g>
	<rect y="89.141" fill="#ffffff" width="179.676" height="10.811"/>
	<g>
		<path fill="#ffffff" d="M3.695,199.939v-29.102c0-20.769,8.496-31.152,25.488-31.152c3.581,0,6.763,0.48,9.546,1.439
			c2.783,0.961,5.119,2.287,7.007,3.98c1.888,1.692,3.442,3.775,4.663,6.25c1.221,2.474,2.1,5.159,2.637,8.057
			c0.537,2.896,0.806,6.087,0.806,9.57v7.568h-17.48v-8.105c0-1.596-0.033-2.971-0.098-4.127c-0.065-1.154-0.236-2.473-0.513-3.955
			c-0.277-1.48-0.651-2.686-1.123-3.613c-0.472-0.928-1.172-1.717-2.1-2.367c-0.928-0.651-2.043-0.977-3.345-0.977
			c-5.144,0-7.715,4.329-7.715,12.988v37.939c0,8.627,2.571,12.939,7.715,12.939c1.53,0,2.815-0.439,3.857-1.318
			c1.042-0.879,1.79-2.125,2.246-3.736c0.456-1.611,0.765-3.189,0.928-4.736c0.163-1.545,0.244-3.312,0.244-5.297v-9.033h17.383
			v7.422c-0.065,3.353-0.342,6.445-0.83,9.277s-1.318,5.582-2.49,8.252s-2.661,4.924-4.468,6.762
			c-1.807,1.84-4.143,3.32-7.007,4.443c-2.865,1.123-6.152,1.686-9.863,1.686c-3.809,0-7.186-0.547-10.132-1.637
			c-2.946-1.09-5.371-2.555-7.275-4.395c-1.904-1.838-3.475-4.102-4.712-6.787c-1.237-2.686-2.108-5.508-2.612-8.471
			C3.947,206.742,3.695,203.487,3.695,199.939z"/>
		<path fill="#ffffff" d="M61.02,200.379v-29.541c0-20.769,8.561-31.152,25.684-31.152c17.155,0,25.732,10.384,25.732,31.152v29.102
			c0,3.516-0.261,6.762-0.781,9.74c-0.521,2.979-1.408,5.803-2.661,8.473c-1.253,2.67-2.849,4.939-4.785,6.811
			c-1.937,1.873-4.387,3.346-7.349,4.42c-2.962,1.074-6.348,1.611-10.156,1.611c-3.776,0-7.146-0.529-10.107-1.588
			c-2.962-1.057-5.404-2.49-7.324-4.297c-1.921-1.807-3.508-4.02-4.761-6.641c-1.253-2.619-2.148-5.41-2.686-8.373
			S61.02,203.895,61.02,200.379z M94.662,204.383v-37.988c0-8.659-2.653-12.988-7.959-12.988c-1.595,0-2.946,0.398-4.053,1.195
			c-1.107,0.799-1.921,1.889-2.441,3.271c-0.521,1.385-0.887,2.752-1.099,4.102c-0.212,1.352-0.317,2.824-0.317,4.42v37.988
			c0,8.627,2.637,12.939,7.91,12.939C92.009,217.322,94.662,213.01,94.662,204.383z"/>
		<path fill="#ffffff" d="M121.762,229.285v-87.939h12.793l19.287,45.996v-45.996h14.746v87.939h-12.305l-19.238-48.779v48.779
			H121.762z"/>
		<path fill="#ffffff" d="M176.01,204.139l18.018-3.467c0,1.79,0.032,3.369,0.098,4.736c0.065,1.367,0.236,2.855,0.513,4.467
			c0.276,1.611,0.651,2.93,1.123,3.955c0.472,1.025,1.139,1.889,2.002,2.588c0.862,0.701,1.88,1.051,3.052,1.051
			c3.516,0,5.273-2.246,5.273-6.738c0-6.152-3.467-12.272-10.4-18.359l-5.518-4.688c-1.758-1.465-3.158-2.686-4.199-3.662
			c-1.042-0.977-2.271-2.295-3.687-3.955s-2.523-3.264-3.32-4.811c-0.798-1.545-1.481-3.409-2.051-5.59
			c-0.57-2.182-0.854-4.492-0.854-6.934c0-7.129,2.262-12.77,6.787-16.92c4.524-4.15,10.53-6.225,18.018-6.225
			c6.217,0,11.507,2.213,15.869,6.641c4.362,4.427,6.543,9.766,6.543,16.016l-0.049,0.635c0,0.423,0,0.911,0,1.465l-18.359,2.539
			c0-0.358,0.024-0.92,0.073-1.686c0.049-0.764,0.073-1.391,0.073-1.879c0-1.172-0.082-2.295-0.244-3.369
			c-0.163-1.074-0.432-2.148-0.806-3.223c-0.375-1.074-0.952-1.93-1.733-2.564s-1.726-0.951-2.832-0.951
			c-1.953,0-3.418,0.765-4.395,2.295c-0.977,1.529-1.465,3.336-1.465,5.42c0,1.822,0.285,3.531,0.854,5.127
			c0.569,1.595,1.432,3.084,2.588,4.467c1.155,1.385,2.222,2.531,3.198,3.443c0.977,0.911,2.278,2.025,3.906,3.344
			c1.627,1.318,2.783,2.287,3.467,2.906c2.506,2.213,4.622,4.289,6.348,6.225c1.725,1.938,3.353,4.127,4.883,6.568
			c1.53,2.441,2.677,5.078,3.442,7.91c0.765,2.832,1.147,5.893,1.147,9.18c0,6.152-2.197,11.189-6.592,15.111
			c-4.395,3.924-9.733,5.885-16.016,5.885c-4.069,0-7.683-0.75-10.84-2.246c-3.158-1.498-5.705-3.531-7.642-6.104
			c-1.937-2.572-3.426-5.42-4.468-8.545C176.774,211.072,176.172,207.719,176.01,204.139z"/>
		<path fill="#ffffff" d="M238.803,229.285v-74.609h-12.891v-13.281h43.311v13.281h-12.646v74.609H238.803z"/>
		<path fill="#ffffff" d="M275.131,229.285v-87.891h19.336c4.395,0,8.26,0.414,11.597,1.244c3.336,0.83,6.258,2.133,8.765,3.906
			c2.506,1.775,4.411,4.168,5.713,7.178c1.302,3.012,1.953,6.617,1.953,10.816c0,1.822-0.065,3.45-0.195,4.883
			c-0.13,1.432-0.432,3.068-0.903,4.906c-0.472,1.84-1.115,3.467-1.929,4.883c-0.814,1.416-1.986,2.809-3.516,4.176
			c-1.53,1.367-3.337,2.506-5.42,3.418c5.273,16.731,9.863,30.893,13.77,42.48h-18.408l-10.059-40.479h-2.93v40.479H275.131z
			 M292.904,177.967h5.078c1.367,0,2.539-0.456,3.516-1.367c0.977-0.912,1.685-2.067,2.124-3.467c0.439-1.4,0.749-2.686,0.928-3.857
			c0.179-1.172,0.269-2.279,0.269-3.32c0-1.042-0.073-2.116-0.22-3.223c-0.146-1.107-0.407-2.336-0.781-3.688
			c-0.375-1.35-0.993-2.457-1.855-3.32c-0.863-0.861-1.913-1.293-3.149-1.293h-5.908V177.967z"/>
		<path fill="#ffffff" d="M329.525,196.619v-55.225h17.773v54.688c0,3.125,0.016,5.395,0.049,6.811
			c0.032,1.416,0.114,3.143,0.244,5.176c0.13,2.035,0.358,3.459,0.684,4.273c0.325,0.814,0.773,1.693,1.343,2.637
			c0.569,0.943,1.31,1.562,2.222,1.855c0.911,0.293,2.018,0.439,3.32,0.439c1.302,0,2.409-0.146,3.32-0.439
			c0.911-0.293,1.652-0.904,2.222-1.832c0.569-0.928,1.017-1.797,1.343-2.611c0.325-0.814,0.553-2.223,0.684-4.225
			c0.13-2.002,0.211-3.693,0.244-5.078c0.032-1.383,0.049-3.621,0.049-6.713c0-0.131,0-0.229,0-0.293v-54.688h17.773v55.225
			c0,2.799-0.082,5.338-0.244,7.617c-0.163,2.279-0.472,4.639-0.928,7.08c-0.456,2.441-1.074,4.598-1.855,6.469
			c-0.781,1.873-1.823,3.662-3.125,5.371c-1.302,1.709-2.84,3.117-4.614,4.225c-1.774,1.107-3.915,1.984-6.421,2.637
			c-2.507,0.65-5.322,0.977-8.447,0.977s-5.941-0.326-8.447-0.977c-2.507-0.652-4.639-1.529-6.396-2.637s-3.288-2.516-4.59-4.225
			c-1.302-1.709-2.344-3.498-3.125-5.371c-0.781-1.871-1.408-4.027-1.88-6.469c-0.472-2.441-0.79-4.801-0.952-7.08
			C329.606,201.957,329.525,199.418,329.525,196.619z"/>
		<path fill="#ffffff" d="M389.73,199.939v-29.102c0-20.769,8.496-31.152,25.488-31.152c3.581,0,6.763,0.48,9.546,1.439
			c2.783,0.961,5.119,2.287,7.007,3.98c1.888,1.692,3.442,3.775,4.663,6.25c1.221,2.474,2.1,5.159,2.637,8.057
			c0.537,2.896,0.806,6.087,0.806,9.57v7.568h-17.48v-8.105c0-1.596-0.033-2.971-0.098-4.127c-0.065-1.154-0.236-2.473-0.513-3.955
			c-0.277-1.48-0.651-2.686-1.123-3.613c-0.472-0.928-1.172-1.717-2.1-2.367c-0.928-0.651-2.043-0.977-3.345-0.977
			c-5.144,0-7.715,4.329-7.715,12.988v37.939c0,8.627,2.571,12.939,7.715,12.939c1.53,0,2.815-0.439,3.857-1.318
			c1.042-0.879,1.79-2.125,2.246-3.736c0.456-1.611,0.765-3.189,0.928-4.736c0.163-1.545,0.244-3.312,0.244-5.297v-9.033h17.383
			v7.422c-0.065,3.353-0.342,6.445-0.83,9.277s-1.318,5.582-2.49,8.252s-2.661,4.924-4.468,6.762
			c-1.807,1.84-4.143,3.32-7.007,4.443c-2.865,1.123-6.152,1.686-9.863,1.686c-3.809,0-7.186-0.547-10.132-1.637
			c-2.946-1.09-5.371-2.555-7.275-4.395c-1.904-1.838-3.475-4.102-4.712-6.787c-1.237-2.686-2.108-5.508-2.612-8.471
			C389.982,206.742,389.73,203.487,389.73,199.939z"/>
		<path fill="#ffffff" d="M456.527,229.285v-74.609h-12.891v-13.281h43.311v13.281h-12.646v74.609H456.527z"/>
		<path fill="#ffffff" d="M492.855,229.285v-87.891h17.773v87.891H492.855z"/>
		<path fill="#ffffff" d="M519.955,200.379v-29.541c0-20.769,8.561-31.152,25.684-31.152c17.154,0,25.732,10.384,25.732,31.152
			v29.102c0,3.516-0.26,6.762-0.781,9.74s-1.408,5.803-2.66,8.473c-1.254,2.67-2.85,4.939-4.785,6.811
			c-1.938,1.873-4.387,3.346-7.35,4.42s-6.348,1.611-10.156,1.611c-3.775,0-7.145-0.529-10.107-1.588
			c-2.963-1.057-5.404-2.49-7.324-4.297s-3.508-4.02-4.76-6.641c-1.254-2.619-2.148-5.41-2.686-8.373
			S519.955,203.895,519.955,200.379z M553.597,204.383v-37.988c0-8.659-2.652-12.988-7.959-12.988c-1.596,0-2.945,0.398-4.053,1.195
			c-1.107,0.799-1.92,1.889-2.441,3.271c-0.521,1.385-0.887,2.752-1.098,4.102c-0.213,1.352-0.318,2.824-0.318,4.42v37.988
			c0,8.627,2.637,12.939,7.91,12.939C550.945,217.322,553.597,213.01,553.597,204.383z"/>
		<path fill="#ffffff" d="M580.697,229.285v-87.939h12.793l19.287,45.996v-45.996h14.746v87.939h-12.305l-19.238-48.779v48.779
			H580.697z"/>
		<path fill="#E78D2B" d="M658.333,204.92v-35.205c0-2.995,0.195-5.713,0.586-8.154s1.082-4.77,2.076-6.982
			c0.992-2.214,2.27-4.078,3.832-5.592s3.557-2.709,5.982-3.588c2.424-0.879,5.232-1.318,8.422-1.318
			c13.15,0,19.727,8.545,19.727,25.635v3.418h-7.08v-5.078c0-2.702-0.203-5.095-0.609-7.178c-0.408-2.084-1.084-3.963-2.027-5.641
			c-0.943-1.676-2.254-2.961-3.93-3.857c-1.678-0.895-3.703-1.342-6.08-1.342c-2.148,0-4.02,0.301-5.615,0.902
			c-1.596,0.604-2.889,1.425-3.881,2.467c-0.994,1.041-1.791,2.344-2.393,3.906c-0.604,1.562-1.018,3.197-1.246,4.906
			s-0.342,3.654-0.342,5.836v38.525c0,2.768,0.195,5.168,0.586,7.201c0.391,2.035,1.066,3.906,2.027,5.615
			c0.959,1.709,2.352,3.012,4.174,3.906c1.822,0.896,4.053,1.344,6.689,1.344c2.377,0,4.402-0.447,6.08-1.344
			c1.676-0.895,2.986-2.188,3.93-3.881s1.619-3.58,2.027-5.664c0.406-2.084,0.609-4.477,0.609-7.178v-5.762h7.08v4.102
			c0,2.963-0.18,5.664-0.537,8.105s-1,4.777-1.928,7.006c-0.928,2.23-2.125,4.102-3.59,5.615s-3.354,2.719-5.664,3.613
			s-4.98,1.344-8.008,1.344c-3.256,0-6.111-0.449-8.568-1.344c-2.459-0.895-4.461-2.1-6.006-3.613
			c-1.547-1.514-2.801-3.385-3.76-5.615c-0.961-2.229-1.629-4.557-2.002-6.982C658.521,210.625,658.333,207.914,658.333,204.92z"/>
		<path fill="#E78D2B" d="M708.724,204.92v-35.205c0-2.963,0.221-5.681,0.66-8.154c0.439-2.475,1.18-4.811,2.221-7.008
			s2.359-4.053,3.955-5.566s3.629-2.709,6.104-3.588s5.307-1.318,8.496-1.318s6.021,0.439,8.496,1.318s4.508,2.074,6.104,3.588
			s2.914,3.369,3.955,5.566s1.783,4.533,2.223,7.008c0.439,2.474,0.658,5.191,0.658,8.154v35.205
			c0,17.123-7.145,25.684-21.436,25.684S708.724,222.043,708.724,204.92z M744.173,206.58v-38.525
			c0-12.012-4.672-18.018-14.014-18.018s-14.014,6.006-14.014,18.018v38.525c0,12.045,4.672,18.066,14.014,18.066
			S744.173,218.625,744.173,206.58z"/>
		<path fill="#E78D2B" d="M764.291,229.285v-84.033h9.131l16.211,72.559c1.986-9.506,4.623-21.135,7.91-34.889
			c3.287-13.752,6.055-26.31,8.301-37.67h9.131v84.033h-6.592v-67.236l-15.527,67.236h-6.445l-15.527-67.188v67.188H764.291z"/>
		<path fill="#E78D2B" d="M829.232,229.285v-84.033h20.557c2.93,0,5.533,0.398,7.812,1.195c2.279,0.799,4.166,1.881,5.664,3.248
			s2.734,3.027,3.711,4.98s1.668,4.012,2.076,6.176c0.406,2.166,0.609,4.501,0.609,7.008c0,2.571-0.17,4.947-0.512,7.129
			c-0.342,2.181-0.977,4.346-1.904,6.494s-2.117,3.963-3.564,5.443c-1.449,1.482-3.361,2.686-5.738,3.613s-5.111,1.393-8.203,1.393
			h-13.086v37.354H829.232z M836.654,185.975l13.965,0.049c4.166,0.032,7.145-1.408,8.936-4.322
			c1.791-2.912,2.686-7.479,2.686-13.695c0-5.795-0.961-10.043-2.881-12.744c-1.92-2.702-4.834-4.053-8.74-4.053h-13.965V185.975z"
			/>
		<path fill="#E78D2B" d="M877.328,229.285h-7.471l16.602-84.033h9.668l16.602,84.033h-7.52l-4.199-21.875h-19.385L877.328,229.285z
			 M882.503,202.479h17.578l-8.838-49.512L882.503,202.479z"/>
		<path fill="#E78D2B" d="M922.152,229.285v-84.033h5.713l26.611,66.553v-66.553h6.299v84.033h-5.566l-26.66-65.137v65.137H922.152z
			"/>
		<path fill="#E78D2B" d="M986.166,229.285v-26.074l-18.359-57.959h7.52c0.65,2.344,1.596,5.647,2.832,9.912
			c1.236,4.264,2.506,8.594,3.809,12.988s2.564,8.617,3.785,12.67s2.221,7.382,3.002,9.986l1.172,3.857
			c2.084-7.65,4.492-16.105,7.227-25.367c2.734-9.26,5.045-17.276,6.934-24.047h7.275l-17.773,57.959v26.074H986.166z"/>
	</g>
</g>
</svg>
