<?xml version="1.0" encoding="utf-8"?>
<!-- Generator: Adobe Illustrator 16.0.0, SVG Export Plug-In . SVG Version: 6.00 Build 0)  -->
<!DOCTYPE svg PUBLIC "-//W3C//DTD SVG 1.1//EN" "http://www.w3.org/Graphics/SVG/1.1/DTD/svg11.dtd">
<svg version="1.1" id="Layer_1" xmlns="http://www.w3.org/2000/svg" xmlns:xlink="http://www.w3.org/1999/xlink" x="0px" y="0px"
	 width="179.189px" height="132.522px" viewBox="0 0 179.189 132.522" enable-background="new 0 0 179.189 132.522"
	 xml:space="preserve">
<g>
	<g>
		<polygon fill="#E78D2B" points="179.189,126.241 174.226,126.241 174.226,114.659 117.142,114.659 117.142,109.695 
			179.189,109.695 		"/>
	</g>
	<path fill="#E78D2B" d="M0.159,99.749c3.426,16.316,16.3,29.189,32.619,32.614c2.403,0.505,4.903-0.205,6.64-1.941l91.006-91.007
		c1.737-1.736,2.446-4.236,1.941-6.64c-3.426-16.316-16.3-29.188-32.619-32.614c-2.403-0.505-4.903,0.205-6.64,1.941L2.101,93.109
		C0.364,94.846-0.346,97.346,0.159,99.749z"/>
	<path fill="#E78D2B" d="M98.628,61.313L39.415,2.101c-1.737-1.736-4.236-2.446-6.64-1.941C16.459,3.586,3.586,16.459,0.161,32.777
		c-0.505,2.403,0.205,4.903,1.941,6.64L61.53,98.845c2.922,2.922,7.701,2.785,10.448-0.301c8.289-9.312,16.663-18.708,26.137-26.61
		C101.372,69.218,101.626,64.312,98.628,61.313z"/>
	<path fill="#303745" d="M119.207,126.242H41.459c-19.428,0-35.177-15.75-35.177-35.177V41.459
		c0-19.428,15.749-35.177,35.177-35.177h49.605c19.428,0,35.177,15.749,35.177,35.177v77.747
		C126.242,123.092,123.092,126.242,119.207,126.242z"/>
	<g>
		<path fill="#E78D2B" d="M91.064,100.582H41.46c-5.248,0-9.518-4.269-9.518-9.517V41.459c0-5.248,4.271-9.517,9.518-9.517h49.604
			c5.248,0,9.518,4.269,9.518,9.517v49.606C100.583,96.313,96.312,100.582,91.064,100.582z M41.46,36.906
			c-2.511,0-4.554,2.042-4.554,4.553v49.606c0,2.511,2.043,4.554,4.554,4.554h49.604c2.511,0,4.554-2.043,4.554-4.554V41.459
			c0-2.511-2.043-4.553-4.554-4.553H41.46z"/>
	</g>
	<g>
		<path fill="#E78D2B" d="M73.828,79.164c0,1.924-0.955,2.885-2.865,2.885h-9.462c-1.87,0-2.804-0.961-2.804-2.885v-7.283h4.64
			v6.113h5.852V65.849H58.697l0.504-15.373h14.405v4.136H63.579l-0.303,7.183h7.687c1.91,0,2.865,0.955,2.865,2.864V79.164z"/>
	</g>
</g>
</svg>
